<mxfile host="app.diagrams.net" modified="2020-07-25T07:29:02.115Z" agent="5.0 (Windows NT 10.0; Win64; x64) AppleWebKit/537.36 (KHTML, like Gecko) Chrome/83.0.4103.116 Safari/537.36 Edg/83.0.478.56" etag="nsXZ_Ob9s9yE_FtV6TYh" version="13.5.3" type="github">
  <diagram id="jB5pPAWH3uwd0XR7e1Xp" name="Page-1">
    <mxGraphModel dx="707" dy="413" grid="0" gridSize="10" guides="1" tooltips="1" connect="1" arrows="1" fold="1" page="1" pageScale="1" pageWidth="827" pageHeight="1169" math="0" shadow="0">
      <root>
        <mxCell id="0" />
        <mxCell id="1" parent="0" />
        <mxCell id="ymuWMNrLr9ZNkfSyqNb6-2" value="BERT" style="rounded=1;whiteSpace=wrap;html=1;fontFamily=Times New Roman;fillColor=#d5e8d4;strokeColor=#82b366;fontSize=11;" vertex="1" parent="1">
          <mxGeometry x="40" y="91" width="137" height="40" as="geometry" />
        </mxCell>
        <mxCell id="ymuWMNrLr9ZNkfSyqNb6-3" value="CLS" style="whiteSpace=wrap;html=1;fontFamily=Times New Roman;fontSize=11;fillColor=#dae8fc;strokeColor=#6c8ebf;rounded=1;" vertex="1" parent="1">
          <mxGeometry x="40" y="143" width="22" height="16" as="geometry" />
        </mxCell>
        <mxCell id="ymuWMNrLr9ZNkfSyqNb6-4" value="甲" style="whiteSpace=wrap;html=1;fontFamily=Times New Roman;fontSize=11;fillColor=#ffe6cc;strokeColor=#d79b00;rounded=1;" vertex="1" parent="1">
          <mxGeometry x="63" y="143" width="22" height="16" as="geometry" />
        </mxCell>
        <mxCell id="ymuWMNrLr9ZNkfSyqNb6-5" value="状" style="whiteSpace=wrap;html=1;fontFamily=Times New Roman;fontSize=11;fillColor=#ffe6cc;strokeColor=#d79b00;rounded=1;" vertex="1" parent="1">
          <mxGeometry x="86" y="143" width="22" height="16" as="geometry" />
        </mxCell>
        <mxCell id="ymuWMNrLr9ZNkfSyqNb6-6" value="腺" style="whiteSpace=wrap;html=1;fontFamily=Times New Roman;fontSize=11;fillColor=#ffe6cc;strokeColor=#d79b00;rounded=1;" vertex="1" parent="1">
          <mxGeometry x="109" y="143" width="22" height="16" as="geometry" />
        </mxCell>
        <mxCell id="ymuWMNrLr9ZNkfSyqNb6-7" value="肿" style="whiteSpace=wrap;html=1;fontFamily=Times New Roman;fontSize=11;fillColor=#ffe6cc;strokeColor=#d79b00;rounded=1;" vertex="1" parent="1">
          <mxGeometry x="132" y="143" width="22" height="16" as="geometry" />
        </mxCell>
        <mxCell id="ymuWMNrLr9ZNkfSyqNb6-8" value="大" style="whiteSpace=wrap;html=1;fontFamily=Times New Roman;fontSize=11;fillColor=#ffe6cc;strokeColor=#d79b00;rounded=1;" vertex="1" parent="1">
          <mxGeometry x="155" y="143" width="22" height="16" as="geometry" />
        </mxCell>
        <mxCell id="ymuWMNrLr9ZNkfSyqNb6-9" value="" style="endArrow=blockThin;html=1;fontFamily=Times New Roman;fontSize=11;exitX=0;exitY=0;exitDx=0;exitDy=0;endFill=1;" edge="1" parent="1">
          <mxGeometry width="50" height="50" relative="1" as="geometry">
            <mxPoint x="108.99999999999989" y="145" as="sourcePoint" />
            <mxPoint x="108.80303030303037" y="131" as="targetPoint" />
          </mxGeometry>
        </mxCell>
        <mxCell id="ymuWMNrLr9ZNkfSyqNb6-10" value="CLS" style="whiteSpace=wrap;html=1;fontFamily=Times New Roman;fontSize=11;rounded=1;fillColor=#d5e8d4;strokeColor=#82b366;" vertex="1" parent="1">
          <mxGeometry x="40" y="91" width="22" height="16" as="geometry" />
        </mxCell>
        <mxCell id="ymuWMNrLr9ZNkfSyqNb6-11" value="MLP" style="rounded=1;whiteSpace=wrap;html=1;fontFamily=Times New Roman;fontSize=11;fillColor=#f8cecc;strokeColor=#b85450;" vertex="1" parent="1">
          <mxGeometry x="39.5" y="63" width="26" height="16" as="geometry" />
        </mxCell>
        <mxCell id="ymuWMNrLr9ZNkfSyqNb6-12" value="" style="endArrow=blockThin;html=1;fontFamily=Times New Roman;fontSize=11;entryX=0.5;entryY=1;entryDx=0;entryDy=0;endFill=1;" edge="1" parent="1">
          <mxGeometry width="50" height="50" relative="1" as="geometry">
            <mxPoint x="51" y="91" as="sourcePoint" />
            <mxPoint x="51" y="79" as="targetPoint" />
          </mxGeometry>
        </mxCell>
        <mxCell id="ymuWMNrLr9ZNkfSyqNb6-13" value="" style="endArrow=blockThin;html=1;fontFamily=Times New Roman;fontSize=11;exitX=0.5;exitY=0;exitDx=0;exitDy=0;endFill=1;" edge="1" parent="1">
          <mxGeometry width="50" height="50" relative="1" as="geometry">
            <mxPoint x="51" y="63" as="sourcePoint" />
            <mxPoint x="51" y="51" as="targetPoint" />
          </mxGeometry>
        </mxCell>
        <mxCell id="ymuWMNrLr9ZNkfSyqNb6-14" value="Label" style="text;html=1;strokeColor=none;fillColor=none;align=center;verticalAlign=middle;whiteSpace=wrap;rounded=0;fontSize=11;fontFamily=Times New Roman;" vertex="1" parent="1">
          <mxGeometry x="33" y="39" width="40" height="12" as="geometry" />
        </mxCell>
        <mxCell id="ymuWMNrLr9ZNkfSyqNb6-15" value="Span" style="text;html=1;strokeColor=none;fillColor=none;align=center;verticalAlign=middle;whiteSpace=wrap;rounded=0;fontFamily=Times New Roman;fontSize=11;" vertex="1" parent="1">
          <mxGeometry x="72" y="159" width="80" height="12" as="geometry" />
        </mxCell>
        <mxCell id="ymuWMNrLr9ZNkfSyqNb6-16" value="BERT" style="rounded=1;whiteSpace=wrap;html=1;fontFamily=Times New Roman;fillColor=#d5e8d4;strokeColor=#82b366;fontSize=11;" vertex="1" parent="1">
          <mxGeometry x="200" y="91" width="160" height="40" as="geometry" />
        </mxCell>
        <mxCell id="ymuWMNrLr9ZNkfSyqNb6-17" value="CLS" style="whiteSpace=wrap;html=1;fontFamily=Times New Roman;fontSize=11;fillColor=#dae8fc;strokeColor=#6c8ebf;rounded=1;" vertex="1" parent="1">
          <mxGeometry x="200" y="143" width="22" height="16" as="geometry" />
        </mxCell>
        <mxCell id="ymuWMNrLr9ZNkfSyqNb6-18" value="W&lt;sub&gt;1&lt;/sub&gt;" style="whiteSpace=wrap;html=1;fontFamily=Times New Roman;fontSize=11;fillColor=#fff2cc;strokeColor=#d6b656;rounded=1;" vertex="1" parent="1">
          <mxGeometry x="223" y="143" width="22" height="16" as="geometry" />
        </mxCell>
        <mxCell id="ymuWMNrLr9ZNkfSyqNb6-19" value="W&lt;sub&gt;2&lt;/sub&gt;" style="whiteSpace=wrap;html=1;fontFamily=Times New Roman;fontSize=11;fillColor=#fff2cc;strokeColor=#d6b656;rounded=1;" vertex="1" parent="1">
          <mxGeometry x="246" y="143" width="22" height="16" as="geometry" />
        </mxCell>
        <mxCell id="ymuWMNrLr9ZNkfSyqNb6-20" value="" style="endArrow=blockThin;html=1;fontFamily=Times New Roman;fontSize=11;exitX=0.5;exitY=0;exitDx=0;exitDy=0;endFill=1;" edge="1" parent="1">
          <mxGeometry width="50" height="50" relative="1" as="geometry">
            <mxPoint x="280" y="145" as="sourcePoint" />
            <mxPoint x="280" y="131" as="targetPoint" />
          </mxGeometry>
        </mxCell>
        <mxCell id="ymuWMNrLr9ZNkfSyqNb6-21" value="CLS" style="whiteSpace=wrap;html=1;fontFamily=Times New Roman;fontSize=11;rounded=1;fillColor=#d5e8d4;strokeColor=#82b366;" vertex="1" parent="1">
          <mxGeometry x="200" y="91" width="22" height="16" as="geometry" />
        </mxCell>
        <mxCell id="ymuWMNrLr9ZNkfSyqNb6-22" value="MLP" style="rounded=1;whiteSpace=wrap;html=1;fontFamily=Times New Roman;fontSize=11;fillColor=#f8cecc;strokeColor=#b85450;" vertex="1" parent="1">
          <mxGeometry x="199" y="63" width="26" height="16" as="geometry" />
        </mxCell>
        <mxCell id="ymuWMNrLr9ZNkfSyqNb6-23" value="" style="endArrow=blockThin;html=1;fontFamily=Times New Roman;fontSize=11;entryX=0.5;entryY=1;entryDx=0;entryDy=0;endFill=1;" edge="1" parent="1">
          <mxGeometry width="50" height="50" relative="1" as="geometry">
            <mxPoint x="211" y="91" as="sourcePoint" />
            <mxPoint x="211" y="79" as="targetPoint" />
          </mxGeometry>
        </mxCell>
        <mxCell id="ymuWMNrLr9ZNkfSyqNb6-24" value="" style="endArrow=blockThin;html=1;fontFamily=Times New Roman;fontSize=11;exitX=0.5;exitY=0;exitDx=0;exitDy=0;endFill=1;" edge="1" parent="1">
          <mxGeometry width="50" height="50" relative="1" as="geometry">
            <mxPoint x="210" y="63" as="sourcePoint" />
            <mxPoint x="210" y="51" as="targetPoint" />
          </mxGeometry>
        </mxCell>
        <mxCell id="ymuWMNrLr9ZNkfSyqNb6-25" value="Label" style="text;html=1;strokeColor=none;fillColor=none;align=center;verticalAlign=middle;whiteSpace=wrap;rounded=0;fontSize=11;fontFamily=Times New Roman;" vertex="1" parent="1">
          <mxGeometry x="191" y="39" width="40" height="12" as="geometry" />
        </mxCell>
        <mxCell id="ymuWMNrLr9ZNkfSyqNb6-26" value="Sentence" style="text;html=1;strokeColor=none;fillColor=none;align=center;verticalAlign=middle;whiteSpace=wrap;rounded=0;fontFamily=Times New Roman;fontSize=11;" vertex="1" parent="1">
          <mxGeometry x="215" y="159" width="80" height="12" as="geometry" />
        </mxCell>
        <mxCell id="ymuWMNrLr9ZNkfSyqNb6-27" value="W&lt;sub&gt;3&lt;/sub&gt;" style="whiteSpace=wrap;html=1;fontFamily=Times New Roman;fontSize=11;fillColor=#fff2cc;strokeColor=#d6b656;rounded=1;" vertex="1" parent="1">
          <mxGeometry x="269" y="143" width="22" height="16" as="geometry" />
        </mxCell>
        <mxCell id="ymuWMNrLr9ZNkfSyqNb6-28" value="SEP" style="whiteSpace=wrap;html=1;fontFamily=Times New Roman;fontSize=11;fillColor=#dae8fc;strokeColor=#6c8ebf;rounded=1;" vertex="1" parent="1">
          <mxGeometry x="292" y="143" width="22" height="16" as="geometry" />
        </mxCell>
        <mxCell id="ymuWMNrLr9ZNkfSyqNb6-29" value="W&lt;font size=&quot;1&quot;&gt;4&lt;/font&gt;" style="whiteSpace=wrap;html=1;fontFamily=Times New Roman;fontSize=11;fillColor=#ffe6cc;strokeColor=#d79b00;rounded=1;" vertex="1" parent="1">
          <mxGeometry x="315" y="143" width="22" height="16" as="geometry" />
        </mxCell>
        <mxCell id="ymuWMNrLr9ZNkfSyqNb6-30" value="W&lt;font size=&quot;1&quot;&gt;5&lt;/font&gt;" style="whiteSpace=wrap;html=1;fontFamily=Times New Roman;fontSize=11;fillColor=#ffe6cc;strokeColor=#d79b00;rounded=1;" vertex="1" parent="1">
          <mxGeometry x="338" y="143" width="22" height="16" as="geometry" />
        </mxCell>
        <mxCell id="ymuWMNrLr9ZNkfSyqNb6-31" value="Span" style="text;html=1;strokeColor=none;fillColor=none;align=center;verticalAlign=middle;whiteSpace=wrap;rounded=0;fontFamily=Times New Roman;fontSize=11;" vertex="1" parent="1">
          <mxGeometry x="296" y="159" width="80" height="12" as="geometry" />
        </mxCell>
        <mxCell id="ymuWMNrLr9ZNkfSyqNb6-32" value="W&lt;sub&gt;1&lt;/sub&gt;" style="whiteSpace=wrap;html=1;fontFamily=Times New Roman;fontSize=11;fillColor=#fff2cc;strokeColor=#d6b656;rounded=1;" vertex="1" parent="1">
          <mxGeometry x="223" y="143" width="22" height="16" as="geometry" />
        </mxCell>
        <mxCell id="ymuWMNrLr9ZNkfSyqNb6-33" value="BERT" style="rounded=1;whiteSpace=wrap;html=1;fontFamily=Times New Roman;fillColor=#d5e8d4;strokeColor=#82b366;fontSize=11;direction=south;" vertex="1" parent="1">
          <mxGeometry x="170" y="235" width="40" height="125" as="geometry" />
        </mxCell>
        <mxCell id="ymuWMNrLr9ZNkfSyqNb6-34" value="CLS" style="whiteSpace=wrap;html=1;fontFamily=Times New Roman;fontSize=11;fillColor=#dae8fc;strokeColor=#6c8ebf;rounded=1;" vertex="1" parent="1">
          <mxGeometry x="33" y="317" width="22" height="16" as="geometry" />
        </mxCell>
        <mxCell id="ymuWMNrLr9ZNkfSyqNb6-35" value="SEP" style="whiteSpace=wrap;html=1;fontFamily=Times New Roman;fontSize=11;fillColor=#dae8fc;strokeColor=#6c8ebf;rounded=1;" vertex="1" parent="1">
          <mxGeometry x="82" y="317" width="22" height="16" as="geometry" />
        </mxCell>
        <mxCell id="ymuWMNrLr9ZNkfSyqNb6-36" value="Span" style="whiteSpace=wrap;html=1;fontFamily=Times New Roman;fontSize=11;fillColor=#ffe6cc;strokeColor=#d79b00;rounded=1;" vertex="1" parent="1">
          <mxGeometry x="56" y="317" width="25" height="16" as="geometry" />
        </mxCell>
        <mxCell id="ymuWMNrLr9ZNkfSyqNb6-37" value="CLS" style="whiteSpace=wrap;html=1;fontFamily=Times New Roman;fontSize=11;fillColor=#dae8fc;strokeColor=#6c8ebf;rounded=1;" vertex="1" parent="1">
          <mxGeometry x="33" y="343" width="22" height="16" as="geometry" />
        </mxCell>
        <mxCell id="ymuWMNrLr9ZNkfSyqNb6-38" value="SEP" style="whiteSpace=wrap;html=1;fontFamily=Times New Roman;fontSize=11;fillColor=#dae8fc;strokeColor=#6c8ebf;rounded=1;" vertex="1" parent="1">
          <mxGeometry x="82" y="343" width="22" height="16" as="geometry" />
        </mxCell>
        <mxCell id="ymuWMNrLr9ZNkfSyqNb6-39" value="Span" style="whiteSpace=wrap;html=1;fontFamily=Times New Roman;fontSize=11;fillColor=#ffe6cc;strokeColor=#d79b00;rounded=1;" vertex="1" parent="1">
          <mxGeometry x="56" y="343" width="25" height="16" as="geometry" />
        </mxCell>
        <mxCell id="ymuWMNrLr9ZNkfSyqNb6-40" value="Sentence&lt;font size=&quot;1&quot;&gt;&lt;sub&gt;m&lt;/sub&gt;&lt;/font&gt;" style="whiteSpace=wrap;html=1;fontFamily=Times New Roman;fontSize=11;fillColor=#fff2cc;strokeColor=#d6b656;rounded=1;" vertex="1" parent="1">
          <mxGeometry x="105" y="343" width="52" height="16" as="geometry" />
        </mxCell>
        <mxCell id="ymuWMNrLr9ZNkfSyqNb6-41" value="......" style="text;html=1;strokeColor=none;fillColor=none;align=center;verticalAlign=middle;whiteSpace=wrap;rounded=0;fontFamily=Times New Roman;fontSize=11;" vertex="1" parent="1">
          <mxGeometry x="65" y="327" width="40" height="11" as="geometry" />
        </mxCell>
        <mxCell id="ymuWMNrLr9ZNkfSyqNb6-42" value="CLS" style="whiteSpace=wrap;html=1;fontFamily=Times New Roman;fontSize=11;fillColor=#dae8fc;strokeColor=#6c8ebf;rounded=1;" vertex="1" parent="1">
          <mxGeometry x="65" y="287" width="22" height="16" as="geometry" />
        </mxCell>
        <mxCell id="ymuWMNrLr9ZNkfSyqNb6-43" value="Sentence&lt;font size=&quot;1&quot;&gt;&lt;sub&gt;m&lt;/sub&gt;&lt;/font&gt;" style="whiteSpace=wrap;html=1;fontFamily=Times New Roman;fontSize=11;fillColor=#fff2cc;strokeColor=#d6b656;rounded=1;" vertex="1" parent="1">
          <mxGeometry x="88" y="287" width="52" height="16" as="geometry" />
        </mxCell>
        <mxCell id="ymuWMNrLr9ZNkfSyqNb6-44" value="Sentence&lt;sub&gt;1&lt;/sub&gt;" style="whiteSpace=wrap;html=1;fontFamily=Times New Roman;fontSize=11;fillColor=#fff2cc;strokeColor=#d6b656;rounded=1;" vertex="1" parent="1">
          <mxGeometry x="105" y="317" width="52" height="16" as="geometry" />
        </mxCell>
        <mxCell id="ymuWMNrLr9ZNkfSyqNb6-45" value="CLS" style="whiteSpace=wrap;html=1;fontFamily=Times New Roman;fontSize=11;fillColor=#dae8fc;strokeColor=#6c8ebf;rounded=1;" vertex="1" parent="1">
          <mxGeometry x="80" y="235" width="22" height="16" as="geometry" />
        </mxCell>
        <mxCell id="ymuWMNrLr9ZNkfSyqNb6-46" value="Span" style="whiteSpace=wrap;html=1;fontFamily=Times New Roman;fontSize=11;fillColor=#ffe6cc;strokeColor=#d79b00;rounded=1;" vertex="1" parent="1">
          <mxGeometry x="103" y="235" width="25" height="16" as="geometry" />
        </mxCell>
        <mxCell id="ymuWMNrLr9ZNkfSyqNb6-47" value="CLS" style="whiteSpace=wrap;html=1;fontFamily=Times New Roman;fontSize=11;fillColor=#dae8fc;strokeColor=#6c8ebf;rounded=1;" vertex="1" parent="1">
          <mxGeometry x="65" y="262" width="22" height="16" as="geometry" />
        </mxCell>
        <mxCell id="ymuWMNrLr9ZNkfSyqNb6-48" value="Sentence&lt;sub&gt;1&lt;/sub&gt;" style="whiteSpace=wrap;html=1;fontFamily=Times New Roman;fontSize=11;fillColor=#fff2cc;strokeColor=#d6b656;rounded=1;" vertex="1" parent="1">
          <mxGeometry x="88" y="262" width="52" height="16" as="geometry" />
        </mxCell>
        <mxCell id="ymuWMNrLr9ZNkfSyqNb6-49" value="......" style="text;html=1;strokeColor=none;fillColor=none;align=center;verticalAlign=middle;whiteSpace=wrap;rounded=0;fontFamily=Times New Roman;fontSize=11;" vertex="1" parent="1">
          <mxGeometry x="95.5" y="272" width="40" height="11" as="geometry" />
        </mxCell>
        <mxCell id="ymuWMNrLr9ZNkfSyqNb6-50" value="q" style="rounded=1;whiteSpace=wrap;html=1;fontFamily=Times New Roman;fontSize=11;fillColor=#d5e8d4;strokeColor=#82b366;fontStyle=1" vertex="1" parent="1">
          <mxGeometry x="222" y="241" width="22" height="16" as="geometry" />
        </mxCell>
        <mxCell id="ymuWMNrLr9ZNkfSyqNb6-51" value="K" style="rounded=1;whiteSpace=wrap;html=1;fontFamily=Times New Roman;fontSize=11;fillColor=#d5e8d4;strokeColor=#82b366;fontStyle=1" vertex="1" parent="1">
          <mxGeometry x="222" y="285" width="22" height="16" as="geometry" />
        </mxCell>
        <mxCell id="ymuWMNrLr9ZNkfSyqNb6-52" value="V" style="rounded=1;whiteSpace=wrap;html=1;fontFamily=Times New Roman;fontSize=11;fillColor=#d5e8d4;strokeColor=#82b366;fontStyle=1" vertex="1" parent="1">
          <mxGeometry x="222" y="331" width="22" height="16" as="geometry" />
        </mxCell>
        <mxCell id="ymuWMNrLr9ZNkfSyqNb6-53" value="h&lt;sub&gt;b&lt;/sub&gt;" style="rounded=1;whiteSpace=wrap;html=1;fontFamily=Times New Roman;fontSize=11;fillColor=#d5e8d4;strokeColor=#82b366;fontStyle=1" vertex="1" parent="1">
          <mxGeometry x="256" y="285" width="22" height="16" as="geometry" />
        </mxCell>
        <mxCell id="ymuWMNrLr9ZNkfSyqNb6-54" value="" style="endArrow=blockThin;html=1;fontFamily=Times New Roman;fontSize=11;exitX=1;exitY=0.5;exitDx=0;exitDy=0;endFill=1;" edge="1" parent="1">
          <mxGeometry width="50" height="50" relative="1" as="geometry">
            <mxPoint x="128.0000000000001" y="241.9999999999999" as="sourcePoint" />
            <mxPoint x="170" y="241.9999999999999" as="targetPoint" />
          </mxGeometry>
        </mxCell>
        <mxCell id="ymuWMNrLr9ZNkfSyqNb6-55" value="" style="endArrow=blockThin;html=1;fontFamily=Times New Roman;fontSize=11;exitX=1;exitY=0.5;exitDx=0;exitDy=0;endFill=1;" edge="1" parent="1" source="ymuWMNrLr9ZNkfSyqNb6-48">
          <mxGeometry width="50" height="50" relative="1" as="geometry">
            <mxPoint x="179" y="371" as="sourcePoint" />
            <mxPoint x="170" y="270" as="targetPoint" />
          </mxGeometry>
        </mxCell>
        <mxCell id="ymuWMNrLr9ZNkfSyqNb6-56" value="" style="endArrow=blockThin;html=1;fontFamily=Times New Roman;fontSize=11;exitX=1;exitY=0.5;exitDx=0;exitDy=0;endFill=1;" edge="1" parent="1">
          <mxGeometry width="50" height="50" relative="1" as="geometry">
            <mxPoint x="157" y="325" as="sourcePoint" />
            <mxPoint x="170" y="325" as="targetPoint" />
          </mxGeometry>
        </mxCell>
        <mxCell id="ymuWMNrLr9ZNkfSyqNb6-57" value="" style="endArrow=blockThin;html=1;fontFamily=Times New Roman;fontSize=11;endFill=1;" edge="1" parent="1">
          <mxGeometry width="50" height="50" relative="1" as="geometry">
            <mxPoint x="157" y="351.0000000000001" as="sourcePoint" />
            <mxPoint x="170" y="351.0000000000001" as="targetPoint" />
          </mxGeometry>
        </mxCell>
        <mxCell id="ymuWMNrLr9ZNkfSyqNb6-58" value="" style="endArrow=blockThin;html=1;fontFamily=Times New Roman;fontSize=11;entryX=0;entryY=0.5;entryDx=0;entryDy=0;endFill=1;" edge="1" parent="1">
          <mxGeometry width="50" height="50" relative="1" as="geometry">
            <mxPoint x="210" y="249" as="sourcePoint" />
            <mxPoint x="222" y="249" as="targetPoint" />
            <Array as="points">
              <mxPoint x="218" y="249" />
            </Array>
          </mxGeometry>
        </mxCell>
        <mxCell id="ymuWMNrLr9ZNkfSyqNb6-59" value="" style="endArrow=blockThin;html=1;fontFamily=Times New Roman;fontSize=11;exitX=0.43;exitY=-0.046;exitDx=0;exitDy=0;exitPerimeter=0;entryX=0;entryY=0.5;entryDx=0;entryDy=0;endFill=1;" edge="1" parent="1">
          <mxGeometry width="50" height="50" relative="1" as="geometry">
            <mxPoint x="210" y="292.76" as="sourcePoint" />
            <mxPoint x="222" y="293" as="targetPoint" />
          </mxGeometry>
        </mxCell>
        <mxCell id="ymuWMNrLr9ZNkfSyqNb6-60" value="" style="endArrow=blockThin;html=1;fontFamily=Times New Roman;fontSize=11;entryX=0;entryY=0.5;entryDx=0;entryDy=0;endFill=1;exitX=0;exitY=0.5;exitDx=0;exitDy=0;" edge="1" parent="1">
          <mxGeometry width="50" height="50" relative="1" as="geometry">
            <mxPoint x="210" y="339" as="sourcePoint" />
            <mxPoint x="222" y="339" as="targetPoint" />
          </mxGeometry>
        </mxCell>
        <mxCell id="ymuWMNrLr9ZNkfSyqNb6-61" value="" style="endArrow=blockThin;html=1;fontFamily=Times New Roman;fontSize=11;exitX=1;exitY=0.5;exitDx=0;exitDy=0;entryX=0;entryY=0.5;entryDx=0;entryDy=0;endFill=1;" edge="1" parent="1" source="ymuWMNrLr9ZNkfSyqNb6-52" target="ymuWMNrLr9ZNkfSyqNb6-53">
          <mxGeometry width="50" height="50" relative="1" as="geometry">
            <mxPoint x="172" y="376" as="sourcePoint" />
            <mxPoint x="262" y="296" as="targetPoint" />
          </mxGeometry>
        </mxCell>
        <mxCell id="ymuWMNrLr9ZNkfSyqNb6-62" value="" style="endArrow=blockThin;html=1;fontFamily=Times New Roman;fontSize=11;exitX=1;exitY=0.5;exitDx=0;exitDy=0;entryX=0;entryY=0.5;entryDx=0;entryDy=0;endFill=1;" edge="1" parent="1" source="ymuWMNrLr9ZNkfSyqNb6-50" target="ymuWMNrLr9ZNkfSyqNb6-53">
          <mxGeometry width="50" height="50" relative="1" as="geometry">
            <mxPoint x="172" y="376" as="sourcePoint" />
            <mxPoint x="222" y="326" as="targetPoint" />
          </mxGeometry>
        </mxCell>
        <mxCell id="ymuWMNrLr9ZNkfSyqNb6-63" value="" style="endArrow=blockThin;html=1;fontFamily=Times New Roman;fontSize=11;exitX=1;exitY=0.5;exitDx=0;exitDy=0;entryX=0;entryY=0.5;entryDx=0;entryDy=0;endFill=1;" edge="1" parent="1" source="ymuWMNrLr9ZNkfSyqNb6-51" target="ymuWMNrLr9ZNkfSyqNb6-53">
          <mxGeometry width="50" height="50" relative="1" as="geometry">
            <mxPoint x="172" y="378" as="sourcePoint" />
            <mxPoint x="222" y="328" as="targetPoint" />
          </mxGeometry>
        </mxCell>
        <mxCell id="ymuWMNrLr9ZNkfSyqNb6-64" value="" style="endArrow=blockThin;html=1;fontFamily=Times New Roman;fontSize=11;exitX=1;exitY=0.5;exitDx=0;exitDy=0;endFill=1;" edge="1" parent="1" source="ymuWMNrLr9ZNkfSyqNb6-43">
          <mxGeometry width="50" height="50" relative="1" as="geometry">
            <mxPoint x="179" y="370" as="sourcePoint" />
            <mxPoint x="170" y="295" as="targetPoint" />
          </mxGeometry>
        </mxCell>
        <mxCell id="ymuWMNrLr9ZNkfSyqNb6-65" value="MLP" style="rounded=1;whiteSpace=wrap;html=1;fontFamily=Times New Roman;fontSize=11;fillColor=#f8cecc;strokeColor=#b85450;" vertex="1" parent="1">
          <mxGeometry x="290.5" y="285" width="26" height="16" as="geometry" />
        </mxCell>
        <mxCell id="ymuWMNrLr9ZNkfSyqNb6-66" value="Label" style="text;html=1;strokeColor=none;fillColor=none;align=center;verticalAlign=middle;whiteSpace=wrap;rounded=0;fontSize=11;fontFamily=Times New Roman;" vertex="1" parent="1">
          <mxGeometry x="328" y="286" width="30" height="12" as="geometry" />
        </mxCell>
        <mxCell id="ymuWMNrLr9ZNkfSyqNb6-67" value="" style="endArrow=blockThin;html=1;fontFamily=Times New Roman;fontSize=11;exitX=1;exitY=0.5;exitDx=0;exitDy=0;entryX=0;entryY=0.5;entryDx=0;entryDy=0;endFill=1;" edge="1" parent="1" source="ymuWMNrLr9ZNkfSyqNb6-53" target="ymuWMNrLr9ZNkfSyqNb6-65">
          <mxGeometry width="50" height="50" relative="1" as="geometry">
            <mxPoint x="162" y="188" as="sourcePoint" />
            <mxPoint x="212" y="138" as="targetPoint" />
          </mxGeometry>
        </mxCell>
        <mxCell id="ymuWMNrLr9ZNkfSyqNb6-68" value="" style="endArrow=blockThin;html=1;fontFamily=Times New Roman;fontSize=11;exitX=1;exitY=0.5;exitDx=0;exitDy=0;endFill=1;" edge="1" parent="1">
          <mxGeometry width="50" height="50" relative="1" as="geometry">
            <mxPoint x="316.5" y="293" as="sourcePoint" />
            <mxPoint x="329" y="293" as="targetPoint" />
          </mxGeometry>
        </mxCell>
        <mxCell id="ymuWMNrLr9ZNkfSyqNb6-69" value="BERT" style="rounded=1;whiteSpace=wrap;html=1;fontFamily=Times New Roman;fillColor=#d5e8d4;strokeColor=#82b366;fontSize=11;" vertex="1" parent="1">
          <mxGeometry x="423" y="97" width="160" height="40" as="geometry" />
        </mxCell>
        <mxCell id="ymuWMNrLr9ZNkfSyqNb6-70" value="CLS" style="whiteSpace=wrap;html=1;fontFamily=Times New Roman;fontSize=11;fillColor=#dae8fc;strokeColor=#6c8ebf;rounded=1;" vertex="1" parent="1">
          <mxGeometry x="423" y="149" width="22" height="16" as="geometry" />
        </mxCell>
        <mxCell id="ymuWMNrLr9ZNkfSyqNb6-71" value="" style="endArrow=blockThin;html=1;fontFamily=Times New Roman;fontSize=11;exitX=0.5;exitY=0;exitDx=0;exitDy=0;endFill=1;" edge="1" parent="1">
          <mxGeometry width="50" height="50" relative="1" as="geometry">
            <mxPoint x="503" y="151" as="sourcePoint" />
            <mxPoint x="503" y="137" as="targetPoint" />
          </mxGeometry>
        </mxCell>
        <mxCell id="ymuWMNrLr9ZNkfSyqNb6-72" value="CLS" style="whiteSpace=wrap;html=1;fontFamily=Times New Roman;fontSize=11;rounded=1;fillColor=#d5e8d4;strokeColor=#82b366;" vertex="1" parent="1">
          <mxGeometry x="423" y="97" width="22" height="16" as="geometry" />
        </mxCell>
        <mxCell id="ymuWMNrLr9ZNkfSyqNb6-73" value="MLP" style="rounded=1;whiteSpace=wrap;html=1;fontFamily=Times New Roman;fontSize=11;fillColor=#f8cecc;strokeColor=#b85450;" vertex="1" parent="1">
          <mxGeometry x="422" y="69" width="26" height="16" as="geometry" />
        </mxCell>
        <mxCell id="ymuWMNrLr9ZNkfSyqNb6-74" value="" style="endArrow=blockThin;html=1;fontFamily=Times New Roman;fontSize=11;entryX=0.5;entryY=1;entryDx=0;entryDy=0;endFill=1;" edge="1" parent="1">
          <mxGeometry width="50" height="50" relative="1" as="geometry">
            <mxPoint x="434" y="97" as="sourcePoint" />
            <mxPoint x="434" y="85" as="targetPoint" />
          </mxGeometry>
        </mxCell>
        <mxCell id="ymuWMNrLr9ZNkfSyqNb6-75" value="" style="endArrow=blockThin;html=1;fontFamily=Times New Roman;fontSize=11;exitX=0.5;exitY=0;exitDx=0;exitDy=0;endFill=1;" edge="1" parent="1">
          <mxGeometry width="50" height="50" relative="1" as="geometry">
            <mxPoint x="433" y="69" as="sourcePoint" />
            <mxPoint x="433" y="57" as="targetPoint" />
          </mxGeometry>
        </mxCell>
        <mxCell id="ymuWMNrLr9ZNkfSyqNb6-76" value="Label" style="text;html=1;strokeColor=none;fillColor=none;align=center;verticalAlign=middle;whiteSpace=wrap;rounded=0;fontSize=11;fontFamily=Times New Roman;" vertex="1" parent="1">
          <mxGeometry x="414" y="45" width="40" height="12" as="geometry" />
        </mxCell>
        <mxCell id="ymuWMNrLr9ZNkfSyqNb6-77" value="SEP" style="whiteSpace=wrap;html=1;fontFamily=Times New Roman;fontSize=11;fillColor=#dae8fc;strokeColor=#6c8ebf;rounded=1;" vertex="1" parent="1">
          <mxGeometry x="492" y="149" width="22" height="16" as="geometry" />
        </mxCell>
        <mxCell id="ymuWMNrLr9ZNkfSyqNb6-78" value="W&lt;font size=&quot;1&quot;&gt;&lt;sub&gt;1&lt;/sub&gt;&lt;/font&gt;" style="whiteSpace=wrap;html=1;fontFamily=Times New Roman;fontSize=11;fillColor=#ffe6cc;strokeColor=#d79b00;rounded=1;" vertex="1" parent="1">
          <mxGeometry x="446" y="149" width="22" height="16" as="geometry" />
        </mxCell>
        <mxCell id="ymuWMNrLr9ZNkfSyqNb6-79" value="W&lt;font size=&quot;1&quot;&gt;&lt;sub&gt;2&lt;/sub&gt;&lt;/font&gt;" style="whiteSpace=wrap;html=1;fontFamily=Times New Roman;fontSize=11;fillColor=#ffe6cc;strokeColor=#d79b00;rounded=1;" vertex="1" parent="1">
          <mxGeometry x="469" y="149" width="22" height="16" as="geometry" />
        </mxCell>
        <mxCell id="ymuWMNrLr9ZNkfSyqNb6-80" value="Span" style="text;html=1;strokeColor=none;fillColor=none;align=center;verticalAlign=middle;whiteSpace=wrap;rounded=0;fontFamily=Times New Roman;fontSize=11;" vertex="1" parent="1">
          <mxGeometry x="428" y="163" width="80" height="12" as="geometry" />
        </mxCell>
        <mxCell id="ymuWMNrLr9ZNkfSyqNb6-81" value="Sentence" style="text;html=1;strokeColor=none;fillColor=none;align=center;verticalAlign=middle;whiteSpace=wrap;rounded=0;fontFamily=Times New Roman;fontSize=11;shadow=0;sketch=0;fontColor=#999999;" vertex="1" parent="1">
          <mxGeometry x="506" y="163" width="80" height="12" as="geometry" />
        </mxCell>
        <mxCell id="ymuWMNrLr9ZNkfSyqNb6-82" value="W&lt;font size=&quot;1&quot;&gt;&lt;sub&gt;3&lt;/sub&gt;&lt;/font&gt;" style="whiteSpace=wrap;html=1;fontFamily=Times New Roman;fontSize=11;fillColor=#fff2cc;strokeColor=#d6b656;rounded=1;fontColor=#999999;" vertex="1" parent="1">
          <mxGeometry x="515" y="149" width="22" height="16" as="geometry" />
        </mxCell>
        <mxCell id="ymuWMNrLr9ZNkfSyqNb6-83" value="W&lt;font size=&quot;1&quot;&gt;&lt;sub&gt;4&lt;/sub&gt;&lt;/font&gt;" style="whiteSpace=wrap;html=1;fontFamily=Times New Roman;fontSize=11;fillColor=#fff2cc;strokeColor=#d6b656;rounded=1;fontColor=#999999;" vertex="1" parent="1">
          <mxGeometry x="538" y="149" width="22" height="16" as="geometry" />
        </mxCell>
        <mxCell id="ymuWMNrLr9ZNkfSyqNb6-84" value="W&lt;font size=&quot;1&quot;&gt;&lt;sub&gt;5&lt;/sub&gt;&lt;/font&gt;" style="whiteSpace=wrap;html=1;fontFamily=Times New Roman;fontSize=11;fillColor=#fff2cc;strokeColor=#d6b656;rounded=1;fontColor=#999999;" vertex="1" parent="1">
          <mxGeometry x="561" y="149" width="22" height="16" as="geometry" />
        </mxCell>
        <mxCell id="ymuWMNrLr9ZNkfSyqNb6-85" value="" style="endArrow=none;dashed=1;html=1;fontFamily=Times New Roman;fontSize=11;strokeColor=#999999;" edge="1" parent="1">
          <mxGeometry width="50" height="50" relative="1" as="geometry">
            <mxPoint x="514" y="176" as="sourcePoint" />
            <mxPoint x="514" y="176" as="targetPoint" />
            <Array as="points">
              <mxPoint x="584" y="176" />
              <mxPoint x="584" y="141" />
              <mxPoint x="514" y="141" />
            </Array>
          </mxGeometry>
        </mxCell>
        <mxCell id="ymuWMNrLr9ZNkfSyqNb6-86" value="BERT" style="rounded=1;whiteSpace=wrap;html=1;fontFamily=Times New Roman;fillColor=#d5e8d4;strokeColor=#82b366;fontSize=11;" vertex="1" parent="1">
          <mxGeometry x="80" y="472" width="180" height="60" as="geometry" />
        </mxCell>
        <mxCell id="ymuWMNrLr9ZNkfSyqNb6-87" value="CLS" style="whiteSpace=wrap;html=1;fontFamily=Times New Roman;fontSize=11;fillColor=#dae8fc;strokeColor=#6c8ebf;rounded=1;" vertex="1" parent="1">
          <mxGeometry x="82" y="544" width="22" height="16" as="geometry" />
        </mxCell>
        <mxCell id="ymuWMNrLr9ZNkfSyqNb6-88" value="W&lt;sub&gt;1&lt;/sub&gt;" style="whiteSpace=wrap;html=1;fontFamily=Times New Roman;fontSize=11;fillColor=#fff2cc;strokeColor=#d6b656;rounded=1;" vertex="1" parent="1">
          <mxGeometry x="106" y="544" width="22" height="16" as="geometry" />
        </mxCell>
        <mxCell id="ymuWMNrLr9ZNkfSyqNb6-90" value="" style="endArrow=blockThin;html=1;fontFamily=Times New Roman;fontSize=11;exitX=0.5;exitY=0;exitDx=0;exitDy=0;endFill=1;" edge="1" parent="1">
          <mxGeometry width="50" height="50" relative="1" as="geometry">
            <mxPoint x="182" y="546" as="sourcePoint" />
            <mxPoint x="182" y="532" as="targetPoint" />
          </mxGeometry>
        </mxCell>
        <mxCell id="ymuWMNrLr9ZNkfSyqNb6-92" value="MLP" style="rounded=1;whiteSpace=wrap;html=1;fontFamily=Times New Roman;fontSize=11;fillColor=#f8cecc;strokeColor=#b85450;" vertex="1" parent="1">
          <mxGeometry x="291" y="441" width="26" height="18" as="geometry" />
        </mxCell>
        <mxCell id="ymuWMNrLr9ZNkfSyqNb6-93" value="" style="endArrow=blockThin;html=1;fontFamily=Times New Roman;fontSize=11;entryX=0.5;entryY=1;entryDx=0;entryDy=0;endFill=1;" edge="1" parent="1">
          <mxGeometry width="50" height="50" relative="1" as="geometry">
            <mxPoint x="136" y="472" as="sourcePoint" />
            <mxPoint x="136" y="460" as="targetPoint" />
          </mxGeometry>
        </mxCell>
        <mxCell id="ymuWMNrLr9ZNkfSyqNb6-94" value="" style="endArrow=blockThin;html=1;fontFamily=Times New Roman;fontSize=11;exitX=0.5;exitY=0;exitDx=0;exitDy=0;endFill=1;" edge="1" parent="1">
          <mxGeometry width="50" height="50" relative="1" as="geometry">
            <mxPoint x="304" y="441" as="sourcePoint" />
            <mxPoint x="304" y="429" as="targetPoint" />
          </mxGeometry>
        </mxCell>
        <mxCell id="ymuWMNrLr9ZNkfSyqNb6-95" value="Label" style="text;html=1;strokeColor=none;fillColor=none;align=center;verticalAlign=middle;whiteSpace=wrap;rounded=0;fontSize=11;fontFamily=Times New Roman;" vertex="1" parent="1">
          <mxGeometry x="285" y="418" width="40" height="12" as="geometry" />
        </mxCell>
        <mxCell id="ymuWMNrLr9ZNkfSyqNb6-96" value="Masked Sentence A and&amp;nbsp; B Pair" style="text;html=1;strokeColor=none;fillColor=none;align=center;verticalAlign=middle;whiteSpace=wrap;rounded=0;fontFamily=Times New Roman;fontSize=11;" vertex="1" parent="1">
          <mxGeometry x="91.5" y="567" width="155" height="12" as="geometry" />
        </mxCell>
        <mxCell id="ymuWMNrLr9ZNkfSyqNb6-97" value="A&lt;sub&gt;N&lt;/sub&gt;" style="whiteSpace=wrap;html=1;fontFamily=Times New Roman;fontSize=11;fillColor=#fff2cc;strokeColor=#d6b656;rounded=1;" vertex="1" parent="1">
          <mxGeometry x="147" y="544" width="22" height="16" as="geometry" />
        </mxCell>
        <mxCell id="ymuWMNrLr9ZNkfSyqNb6-98" value="SEP" style="whiteSpace=wrap;html=1;fontFamily=Times New Roman;fontSize=11;fillColor=#dae8fc;strokeColor=#6c8ebf;rounded=1;" vertex="1" parent="1">
          <mxGeometry x="171" y="544" width="22" height="16" as="geometry" />
        </mxCell>
        <mxCell id="ymuWMNrLr9ZNkfSyqNb6-102" value="A&lt;sub&gt;1&lt;/sub&gt;" style="whiteSpace=wrap;html=1;fontFamily=Times New Roman;fontSize=11;fillColor=#fff2cc;strokeColor=#d6b656;rounded=1;" vertex="1" parent="1">
          <mxGeometry x="106" y="544" width="22" height="16" as="geometry" />
        </mxCell>
        <mxCell id="ymuWMNrLr9ZNkfSyqNb6-112" value="" style="endArrow=none;dashed=1;html=1;" edge="1" parent="1">
          <mxGeometry width="50" height="50" relative="1" as="geometry">
            <mxPoint x="130" y="553" as="sourcePoint" />
            <mxPoint x="148" y="553" as="targetPoint" />
          </mxGeometry>
        </mxCell>
        <mxCell id="ymuWMNrLr9ZNkfSyqNb6-113" value="W&lt;sub&gt;1&lt;/sub&gt;" style="whiteSpace=wrap;html=1;fontFamily=Times New Roman;fontSize=11;fillColor=#fff2cc;strokeColor=#d6b656;rounded=1;" vertex="1" parent="1">
          <mxGeometry x="195" y="544" width="22" height="16" as="geometry" />
        </mxCell>
        <mxCell id="ymuWMNrLr9ZNkfSyqNb6-114" value="&lt;span style=&quot;font-size: 11px&quot;&gt;B&lt;/span&gt;&lt;sub&gt;M&lt;/sub&gt;" style="whiteSpace=wrap;html=1;fontFamily=Times New Roman;fontSize=11;fillColor=#ffe6cc;strokeColor=#d79b00;rounded=1;" vertex="1" parent="1">
          <mxGeometry x="236" y="544" width="22" height="16" as="geometry" />
        </mxCell>
        <mxCell id="ymuWMNrLr9ZNkfSyqNb6-115" value="B&lt;sub&gt;1&lt;/sub&gt;" style="whiteSpace=wrap;html=1;fontFamily=Times New Roman;fontSize=11;fillColor=#ffe6cc;strokeColor=#d79b00;rounded=1;" vertex="1" parent="1">
          <mxGeometry x="195" y="544" width="22" height="16" as="geometry" />
        </mxCell>
        <mxCell id="ymuWMNrLr9ZNkfSyqNb6-116" value="" style="endArrow=none;dashed=1;html=1;" edge="1" parent="1">
          <mxGeometry width="50" height="50" relative="1" as="geometry">
            <mxPoint x="219" y="553" as="sourcePoint" />
            <mxPoint x="237" y="553" as="targetPoint" />
          </mxGeometry>
        </mxCell>
        <mxCell id="ymuWMNrLr9ZNkfSyqNb6-119" value="CLS" style="whiteSpace=wrap;html=1;fontFamily=Times New Roman;fontSize=11;fillColor=#dae8fc;strokeColor=#6c8ebf;rounded=1;" vertex="1" parent="1">
          <mxGeometry x="82" y="474" width="22" height="16" as="geometry" />
        </mxCell>
        <mxCell id="ymuWMNrLr9ZNkfSyqNb6-120" value="W&lt;sub&gt;1&lt;/sub&gt;" style="whiteSpace=wrap;html=1;fontFamily=Times New Roman;fontSize=11;fillColor=#fff2cc;strokeColor=#d6b656;rounded=1;" vertex="1" parent="1">
          <mxGeometry x="106" y="474" width="22" height="16" as="geometry" />
        </mxCell>
        <mxCell id="ymuWMNrLr9ZNkfSyqNb6-121" value="A&lt;sub&gt;N&lt;/sub&gt;&#39;" style="whiteSpace=wrap;html=1;fontFamily=Times New Roman;fontSize=11;fillColor=#fff2cc;strokeColor=#d6b656;rounded=1;" vertex="1" parent="1">
          <mxGeometry x="147" y="474" width="22" height="16" as="geometry" />
        </mxCell>
        <mxCell id="ymuWMNrLr9ZNkfSyqNb6-122" value="SEP" style="whiteSpace=wrap;html=1;fontFamily=Times New Roman;fontSize=11;fillColor=#dae8fc;strokeColor=#6c8ebf;rounded=1;" vertex="1" parent="1">
          <mxGeometry x="171" y="474" width="22" height="16" as="geometry" />
        </mxCell>
        <mxCell id="ymuWMNrLr9ZNkfSyqNb6-123" value="A&lt;sub&gt;1&lt;/sub&gt;&#39;" style="whiteSpace=wrap;html=1;fontFamily=Times New Roman;fontSize=11;fillColor=#fff2cc;strokeColor=#d6b656;rounded=1;" vertex="1" parent="1">
          <mxGeometry x="106" y="474" width="22" height="16" as="geometry" />
        </mxCell>
        <mxCell id="ymuWMNrLr9ZNkfSyqNb6-124" value="" style="endArrow=none;dashed=1;html=1;" edge="1" parent="1">
          <mxGeometry width="50" height="50" relative="1" as="geometry">
            <mxPoint x="130" y="483" as="sourcePoint" />
            <mxPoint x="148" y="483" as="targetPoint" />
          </mxGeometry>
        </mxCell>
        <mxCell id="ymuWMNrLr9ZNkfSyqNb6-125" value="W&lt;sub&gt;1&lt;/sub&gt;" style="whiteSpace=wrap;html=1;fontFamily=Times New Roman;fontSize=11;fillColor=#fff2cc;strokeColor=#d6b656;rounded=1;" vertex="1" parent="1">
          <mxGeometry x="195" y="474" width="22" height="16" as="geometry" />
        </mxCell>
        <mxCell id="ymuWMNrLr9ZNkfSyqNb6-126" value="&lt;span style=&quot;font-size: 11px&quot;&gt;B&lt;/span&gt;&lt;sub&gt;M&lt;/sub&gt;&#39;" style="whiteSpace=wrap;html=1;fontFamily=Times New Roman;fontSize=11;fillColor=#ffe6cc;strokeColor=#d79b00;rounded=1;" vertex="1" parent="1">
          <mxGeometry x="236" y="474" width="22" height="16" as="geometry" />
        </mxCell>
        <mxCell id="ymuWMNrLr9ZNkfSyqNb6-127" value="B&lt;sub&gt;1&lt;/sub&gt;&#39;" style="whiteSpace=wrap;html=1;fontFamily=Times New Roman;fontSize=11;fillColor=#ffe6cc;strokeColor=#d79b00;rounded=1;" vertex="1" parent="1">
          <mxGeometry x="195" y="474" width="22" height="16" as="geometry" />
        </mxCell>
        <mxCell id="ymuWMNrLr9ZNkfSyqNb6-128" value="" style="endArrow=none;dashed=1;html=1;" edge="1" parent="1">
          <mxGeometry width="50" height="50" relative="1" as="geometry">
            <mxPoint x="219" y="482" as="sourcePoint" />
            <mxPoint x="237" y="482" as="targetPoint" />
          </mxGeometry>
        </mxCell>
        <mxCell id="ymuWMNrLr9ZNkfSyqNb6-129" value="&lt;font style=&quot;font-size: 11px&quot;&gt;Masked LM&lt;/font&gt;" style="rounded=1;whiteSpace=wrap;html=1;fillColor=#f8cecc;strokeColor=#b85450;" vertex="1" parent="1">
          <mxGeometry x="104" y="441" width="65" height="18" as="geometry" />
        </mxCell>
        <mxCell id="ymuWMNrLr9ZNkfSyqNb6-131" value="" style="endArrow=blockThin;html=1;fontFamily=Times New Roman;fontSize=11;entryX=0.5;entryY=1;entryDx=0;entryDy=0;endFill=1;" edge="1" parent="1">
          <mxGeometry width="50" height="50" relative="1" as="geometry">
            <mxPoint x="225.10000000000002" y="472" as="sourcePoint" />
            <mxPoint x="225.10000000000002" y="460" as="targetPoint" />
          </mxGeometry>
        </mxCell>
        <mxCell id="ymuWMNrLr9ZNkfSyqNb6-132" value="&lt;font style=&quot;font-size: 11px&quot;&gt;Masked LM&lt;/font&gt;" style="rounded=1;whiteSpace=wrap;html=1;fillColor=#f8cecc;strokeColor=#b85450;" vertex="1" parent="1">
          <mxGeometry x="193" y="441" width="65" height="18" as="geometry" />
        </mxCell>
        <mxCell id="ymuWMNrLr9ZNkfSyqNb6-137" value="BERT" style="rounded=1;whiteSpace=wrap;html=1;fontFamily=Times New Roman;fillColor=#d5e8d4;strokeColor=#82b366;fontSize=11;" vertex="1" parent="1">
          <mxGeometry x="290" y="472" width="180" height="60" as="geometry" />
        </mxCell>
        <mxCell id="ymuWMNrLr9ZNkfSyqNb6-138" value="CLS" style="whiteSpace=wrap;html=1;fontFamily=Times New Roman;fontSize=11;fillColor=#dae8fc;strokeColor=#6c8ebf;rounded=1;" vertex="1" parent="1">
          <mxGeometry x="292" y="544" width="22" height="16" as="geometry" />
        </mxCell>
        <mxCell id="ymuWMNrLr9ZNkfSyqNb6-139" value="W&lt;sub&gt;1&lt;/sub&gt;" style="whiteSpace=wrap;html=1;fontFamily=Times New Roman;fontSize=11;fillColor=#fff2cc;strokeColor=#d6b656;rounded=1;" vertex="1" parent="1">
          <mxGeometry x="316" y="544" width="22" height="16" as="geometry" />
        </mxCell>
        <mxCell id="ymuWMNrLr9ZNkfSyqNb6-140" value="" style="endArrow=blockThin;html=1;fontFamily=Times New Roman;fontSize=11;exitX=0.5;exitY=0;exitDx=0;exitDy=0;endFill=1;" edge="1" parent="1">
          <mxGeometry width="50" height="50" relative="1" as="geometry">
            <mxPoint x="391" y="546" as="sourcePoint" />
            <mxPoint x="391" y="532" as="targetPoint" />
          </mxGeometry>
        </mxCell>
        <mxCell id="ymuWMNrLr9ZNkfSyqNb6-141" value="" style="endArrow=blockThin;html=1;fontFamily=Times New Roman;fontSize=11;entryX=0.5;entryY=1;entryDx=0;entryDy=0;endFill=1;" edge="1" parent="1">
          <mxGeometry width="50" height="50" relative="1" as="geometry">
            <mxPoint x="304" y="472" as="sourcePoint" />
            <mxPoint x="304" y="460" as="targetPoint" />
          </mxGeometry>
        </mxCell>
        <mxCell id="ymuWMNrLr9ZNkfSyqNb6-143" value="A&lt;sub&gt;N&lt;/sub&gt;" style="whiteSpace=wrap;html=1;fontFamily=Times New Roman;fontSize=11;fillColor=#fff2cc;strokeColor=#d6b656;rounded=1;" vertex="1" parent="1">
          <mxGeometry x="357" y="544" width="22" height="16" as="geometry" />
        </mxCell>
        <mxCell id="ymuWMNrLr9ZNkfSyqNb6-144" value="SEP" style="whiteSpace=wrap;html=1;fontFamily=Times New Roman;fontSize=11;fillColor=#dae8fc;strokeColor=#6c8ebf;rounded=1;" vertex="1" parent="1">
          <mxGeometry x="381" y="544" width="22" height="16" as="geometry" />
        </mxCell>
        <mxCell id="ymuWMNrLr9ZNkfSyqNb6-145" value="A&lt;sub&gt;1&lt;/sub&gt;" style="whiteSpace=wrap;html=1;fontFamily=Times New Roman;fontSize=11;fillColor=#fff2cc;strokeColor=#d6b656;rounded=1;" vertex="1" parent="1">
          <mxGeometry x="316" y="544" width="22" height="16" as="geometry" />
        </mxCell>
        <mxCell id="ymuWMNrLr9ZNkfSyqNb6-146" value="" style="endArrow=none;dashed=1;html=1;" edge="1" parent="1">
          <mxGeometry width="50" height="50" relative="1" as="geometry">
            <mxPoint x="340" y="553" as="sourcePoint" />
            <mxPoint x="358" y="553" as="targetPoint" />
          </mxGeometry>
        </mxCell>
        <mxCell id="ymuWMNrLr9ZNkfSyqNb6-147" value="W&lt;sub&gt;1&lt;/sub&gt;" style="whiteSpace=wrap;html=1;fontFamily=Times New Roman;fontSize=11;fillColor=#fff2cc;strokeColor=#d6b656;rounded=1;" vertex="1" parent="1">
          <mxGeometry x="405" y="544" width="22" height="16" as="geometry" />
        </mxCell>
        <mxCell id="ymuWMNrLr9ZNkfSyqNb6-148" value="&lt;span style=&quot;font-size: 11px&quot;&gt;B&lt;/span&gt;&lt;sub&gt;M&lt;/sub&gt;" style="whiteSpace=wrap;html=1;fontFamily=Times New Roman;fontSize=11;fillColor=#ffe6cc;strokeColor=#d79b00;rounded=1;" vertex="1" parent="1">
          <mxGeometry x="446" y="544" width="22" height="16" as="geometry" />
        </mxCell>
        <mxCell id="ymuWMNrLr9ZNkfSyqNb6-149" value="B&lt;sub&gt;1&lt;/sub&gt;" style="whiteSpace=wrap;html=1;fontFamily=Times New Roman;fontSize=11;fillColor=#ffe6cc;strokeColor=#d79b00;rounded=1;" vertex="1" parent="1">
          <mxGeometry x="405" y="544" width="22" height="16" as="geometry" />
        </mxCell>
        <mxCell id="ymuWMNrLr9ZNkfSyqNb6-150" value="" style="endArrow=none;dashed=1;html=1;" edge="1" parent="1">
          <mxGeometry width="50" height="50" relative="1" as="geometry">
            <mxPoint x="429" y="553" as="sourcePoint" />
            <mxPoint x="447" y="553" as="targetPoint" />
          </mxGeometry>
        </mxCell>
        <mxCell id="ymuWMNrLr9ZNkfSyqNb6-152" value="CLS" style="whiteSpace=wrap;html=1;fontFamily=Times New Roman;fontSize=11;fillColor=#dae8fc;strokeColor=#6c8ebf;rounded=1;" vertex="1" parent="1">
          <mxGeometry x="292" y="474" width="22" height="16" as="geometry" />
        </mxCell>
        <mxCell id="ymuWMNrLr9ZNkfSyqNb6-153" value="W&lt;sub&gt;1&lt;/sub&gt;" style="whiteSpace=wrap;html=1;fontFamily=Times New Roman;fontSize=11;fillColor=#fff2cc;strokeColor=#d6b656;rounded=1;" vertex="1" parent="1">
          <mxGeometry x="316" y="474" width="22" height="16" as="geometry" />
        </mxCell>
        <mxCell id="ymuWMNrLr9ZNkfSyqNb6-154" value="A&lt;sub&gt;N&lt;/sub&gt;&#39;" style="whiteSpace=wrap;html=1;fontFamily=Times New Roman;fontSize=11;fillColor=#fff2cc;strokeColor=#d6b656;rounded=1;" vertex="1" parent="1">
          <mxGeometry x="357" y="474" width="22" height="16" as="geometry" />
        </mxCell>
        <mxCell id="ymuWMNrLr9ZNkfSyqNb6-155" value="SEP" style="whiteSpace=wrap;html=1;fontFamily=Times New Roman;fontSize=11;fillColor=#dae8fc;strokeColor=#6c8ebf;rounded=1;" vertex="1" parent="1">
          <mxGeometry x="381" y="474" width="22" height="16" as="geometry" />
        </mxCell>
        <mxCell id="ymuWMNrLr9ZNkfSyqNb6-156" value="A&lt;sub&gt;1&lt;/sub&gt;&#39;" style="whiteSpace=wrap;html=1;fontFamily=Times New Roman;fontSize=11;fillColor=#fff2cc;strokeColor=#d6b656;rounded=1;" vertex="1" parent="1">
          <mxGeometry x="316" y="474" width="22" height="16" as="geometry" />
        </mxCell>
        <mxCell id="ymuWMNrLr9ZNkfSyqNb6-157" value="" style="endArrow=none;dashed=1;html=1;" edge="1" parent="1">
          <mxGeometry width="50" height="50" relative="1" as="geometry">
            <mxPoint x="340" y="483" as="sourcePoint" />
            <mxPoint x="358" y="483" as="targetPoint" />
          </mxGeometry>
        </mxCell>
        <mxCell id="ymuWMNrLr9ZNkfSyqNb6-158" value="W&lt;sub&gt;1&lt;/sub&gt;" style="whiteSpace=wrap;html=1;fontFamily=Times New Roman;fontSize=11;fillColor=#fff2cc;strokeColor=#d6b656;rounded=1;" vertex="1" parent="1">
          <mxGeometry x="405" y="474" width="22" height="16" as="geometry" />
        </mxCell>
        <mxCell id="ymuWMNrLr9ZNkfSyqNb6-159" value="&lt;span style=&quot;font-size: 11px&quot;&gt;B&lt;/span&gt;&lt;sub&gt;M&lt;/sub&gt;&#39;" style="whiteSpace=wrap;html=1;fontFamily=Times New Roman;fontSize=11;fillColor=#ffe6cc;strokeColor=#d79b00;rounded=1;" vertex="1" parent="1">
          <mxGeometry x="446" y="474" width="22" height="16" as="geometry" />
        </mxCell>
        <mxCell id="ymuWMNrLr9ZNkfSyqNb6-160" value="B&lt;sub&gt;1&lt;/sub&gt;&#39;" style="whiteSpace=wrap;html=1;fontFamily=Times New Roman;fontSize=11;fillColor=#ffe6cc;strokeColor=#d79b00;rounded=1;" vertex="1" parent="1">
          <mxGeometry x="405" y="474" width="22" height="16" as="geometry" />
        </mxCell>
        <mxCell id="ymuWMNrLr9ZNkfSyqNb6-161" value="" style="endArrow=none;dashed=1;html=1;" edge="1" parent="1">
          <mxGeometry width="50" height="50" relative="1" as="geometry">
            <mxPoint x="429" y="482" as="sourcePoint" />
            <mxPoint x="447" y="482" as="targetPoint" />
          </mxGeometry>
        </mxCell>
        <mxCell id="ymuWMNrLr9ZNkfSyqNb6-165" value="" style="endArrow=blockThin;html=1;fontFamily=Times New Roman;fontSize=11;entryX=0.5;entryY=1;entryDx=0;entryDy=0;endFill=1;" edge="1" parent="1">
          <mxGeometry width="50" height="50" relative="1" as="geometry">
            <mxPoint x="456.1" y="499" as="sourcePoint" />
            <mxPoint x="456.1" y="487" as="targetPoint" />
          </mxGeometry>
        </mxCell>
        <mxCell id="ymuWMNrLr9ZNkfSyqNb6-166" value="Sentence Pair" style="text;html=1;strokeColor=none;fillColor=none;align=center;verticalAlign=middle;whiteSpace=wrap;rounded=0;fontFamily=Times New Roman;fontSize=11;" vertex="1" parent="1">
          <mxGeometry x="314.5" y="567" width="155" height="12" as="geometry" />
        </mxCell>
        <mxCell id="ymuWMNrLr9ZNkfSyqNb6-170" value="&lt;font style=&quot;font-size: 11px&quot;&gt;Classifier&lt;/font&gt;" style="rounded=1;whiteSpace=wrap;html=1;fillColor=#f8cecc;strokeColor=#b85450;" vertex="1" parent="1">
          <mxGeometry x="210" y="390" width="65" height="18" as="geometry" />
        </mxCell>
        <mxCell id="ymuWMNrLr9ZNkfSyqNb6-171" value="" style="shape=flexArrow;endArrow=classic;html=1;width=8;fillColor=#f8cecc;strokeColor=#b85450;rounded=1;" edge="1" parent="1">
          <mxGeometry width="50" height="50" relative="1" as="geometry">
            <mxPoint x="138" y="703" as="sourcePoint" />
            <mxPoint x="138" y="673" as="targetPoint" />
          </mxGeometry>
        </mxCell>
        <mxCell id="ymuWMNrLr9ZNkfSyqNb6-172" value="Masked LM" style="text;html=1;strokeColor=none;fillColor=none;align=center;verticalAlign=middle;whiteSpace=wrap;rounded=0;fontSize=11;" vertex="1" parent="1">
          <mxGeometry x="107" y="661" width="65" height="12" as="geometry" />
        </mxCell>
        <mxCell id="ymuWMNrLr9ZNkfSyqNb6-174" value="" style="shape=flexArrow;endArrow=classic;html=1;width=8;fillColor=#f8cecc;strokeColor=#b85450;" edge="1" parent="1">
          <mxGeometry width="50" height="50" relative="1" as="geometry">
            <mxPoint x="293" y="703" as="sourcePoint" />
            <mxPoint x="293" y="673" as="targetPoint" />
          </mxGeometry>
        </mxCell>
        <mxCell id="ymuWMNrLr9ZNkfSyqNb6-175" value="0/1" style="text;html=1;strokeColor=none;fillColor=none;align=center;verticalAlign=middle;whiteSpace=wrap;rounded=0;fontSize=11;" vertex="1" parent="1">
          <mxGeometry x="261" y="661" width="65" height="12" as="geometry" />
        </mxCell>
        <mxCell id="ymuWMNrLr9ZNkfSyqNb6-176" value="BERT" style="rounded=1;whiteSpace=wrap;html=1;fontFamily=Times New Roman;fillColor=#d5e8d4;strokeColor=#82b366;fontSize=11;" vertex="1" parent="1">
          <mxGeometry x="80" y="704" width="180" height="60" as="geometry" />
        </mxCell>
        <mxCell id="ymuWMNrLr9ZNkfSyqNb6-177" value="CLS" style="whiteSpace=wrap;html=1;fontFamily=Times New Roman;fontSize=11;fillColor=#dae8fc;strokeColor=#6c8ebf;rounded=1;" vertex="1" parent="1">
          <mxGeometry x="82" y="777" width="22" height="16" as="geometry" />
        </mxCell>
        <mxCell id="ymuWMNrLr9ZNkfSyqNb6-178" value="W&lt;sub&gt;1&lt;/sub&gt;" style="whiteSpace=wrap;html=1;fontFamily=Times New Roman;fontSize=11;fillColor=#fff2cc;strokeColor=#d6b656;rounded=1;" vertex="1" parent="1">
          <mxGeometry x="106" y="777" width="22" height="16" as="geometry" />
        </mxCell>
        <mxCell id="ymuWMNrLr9ZNkfSyqNb6-179" value="" style="endArrow=blockThin;html=1;fontFamily=Times New Roman;fontSize=11;exitX=0.5;exitY=0;exitDx=0;exitDy=0;endFill=1;" edge="1" parent="1">
          <mxGeometry width="50" height="50" relative="1" as="geometry">
            <mxPoint x="182" y="777" as="sourcePoint" />
            <mxPoint x="182" y="764" as="targetPoint" />
          </mxGeometry>
        </mxCell>
        <mxCell id="ymuWMNrLr9ZNkfSyqNb6-184" value="Masked Sentence A and&amp;nbsp; B Pair" style="text;html=1;strokeColor=none;fillColor=none;align=center;verticalAlign=middle;whiteSpace=wrap;rounded=0;fontFamily=Times New Roman;fontSize=11;" vertex="1" parent="1">
          <mxGeometry x="95.5" y="796" width="155" height="12" as="geometry" />
        </mxCell>
        <mxCell id="ymuWMNrLr9ZNkfSyqNb6-185" value="A&lt;sub&gt;N&lt;/sub&gt;" style="whiteSpace=wrap;html=1;fontFamily=Times New Roman;fontSize=11;fillColor=#fff2cc;strokeColor=#d6b656;rounded=1;" vertex="1" parent="1">
          <mxGeometry x="147" y="777" width="22" height="16" as="geometry" />
        </mxCell>
        <mxCell id="ymuWMNrLr9ZNkfSyqNb6-186" value="SEP" style="whiteSpace=wrap;html=1;fontFamily=Times New Roman;fontSize=11;fillColor=#dae8fc;strokeColor=#6c8ebf;rounded=1;" vertex="1" parent="1">
          <mxGeometry x="171" y="777" width="22" height="16" as="geometry" />
        </mxCell>
        <mxCell id="ymuWMNrLr9ZNkfSyqNb6-187" value="A&lt;sub&gt;1&lt;/sub&gt;" style="whiteSpace=wrap;html=1;fontFamily=Times New Roman;fontSize=11;fillColor=#fff2cc;strokeColor=#d6b656;rounded=1;" vertex="1" parent="1">
          <mxGeometry x="106" y="777" width="22" height="16" as="geometry" />
        </mxCell>
        <mxCell id="ymuWMNrLr9ZNkfSyqNb6-188" value="" style="endArrow=none;dashed=1;html=1;" edge="1" parent="1">
          <mxGeometry width="50" height="50" relative="1" as="geometry">
            <mxPoint x="130" y="786" as="sourcePoint" />
            <mxPoint x="148" y="786" as="targetPoint" />
          </mxGeometry>
        </mxCell>
        <mxCell id="ymuWMNrLr9ZNkfSyqNb6-189" value="W&lt;sub&gt;1&lt;/sub&gt;" style="whiteSpace=wrap;html=1;fontFamily=Times New Roman;fontSize=11;fillColor=#fff2cc;strokeColor=#d6b656;rounded=1;" vertex="1" parent="1">
          <mxGeometry x="195" y="777" width="22" height="16" as="geometry" />
        </mxCell>
        <mxCell id="ymuWMNrLr9ZNkfSyqNb6-190" value="&lt;span style=&quot;font-size: 11px&quot;&gt;B&lt;/span&gt;&lt;sub&gt;M&lt;/sub&gt;" style="whiteSpace=wrap;html=1;fontFamily=Times New Roman;fontSize=11;fillColor=#ffe6cc;strokeColor=#d79b00;rounded=1;" vertex="1" parent="1">
          <mxGeometry x="236" y="777" width="22" height="16" as="geometry" />
        </mxCell>
        <mxCell id="ymuWMNrLr9ZNkfSyqNb6-191" value="B&lt;sub&gt;1&lt;/sub&gt;" style="whiteSpace=wrap;html=1;fontFamily=Times New Roman;fontSize=11;fillColor=#ffe6cc;strokeColor=#d79b00;rounded=1;" vertex="1" parent="1">
          <mxGeometry x="195" y="777" width="22" height="16" as="geometry" />
        </mxCell>
        <mxCell id="ymuWMNrLr9ZNkfSyqNb6-192" value="" style="endArrow=none;dashed=1;html=1;" edge="1" parent="1">
          <mxGeometry width="50" height="50" relative="1" as="geometry">
            <mxPoint x="219" y="786" as="sourcePoint" />
            <mxPoint x="237" y="786" as="targetPoint" />
          </mxGeometry>
        </mxCell>
        <mxCell id="ymuWMNrLr9ZNkfSyqNb6-193" value="CLS" style="whiteSpace=wrap;html=1;fontFamily=Times New Roman;fontSize=11;fillColor=#dae8fc;strokeColor=#6c8ebf;rounded=1;" vertex="1" parent="1">
          <mxGeometry x="82" y="706" width="22" height="16" as="geometry" />
        </mxCell>
        <mxCell id="ymuWMNrLr9ZNkfSyqNb6-194" value="W&lt;sub&gt;1&lt;/sub&gt;" style="whiteSpace=wrap;html=1;fontFamily=Times New Roman;fontSize=11;fillColor=#fff2cc;strokeColor=#d6b656;rounded=1;" vertex="1" parent="1">
          <mxGeometry x="106" y="706" width="22" height="16" as="geometry" />
        </mxCell>
        <mxCell id="ymuWMNrLr9ZNkfSyqNb6-195" value="A&lt;sub&gt;N&lt;/sub&gt;&#39;" style="whiteSpace=wrap;html=1;fontFamily=Times New Roman;fontSize=11;fillColor=#fff2cc;strokeColor=#d6b656;rounded=1;" vertex="1" parent="1">
          <mxGeometry x="147" y="706" width="22" height="16" as="geometry" />
        </mxCell>
        <mxCell id="ymuWMNrLr9ZNkfSyqNb6-196" value="SEP" style="whiteSpace=wrap;html=1;fontFamily=Times New Roman;fontSize=11;fillColor=#dae8fc;strokeColor=#6c8ebf;rounded=1;" vertex="1" parent="1">
          <mxGeometry x="171" y="706" width="22" height="16" as="geometry" />
        </mxCell>
        <mxCell id="ymuWMNrLr9ZNkfSyqNb6-197" value="A&lt;sub&gt;1&lt;/sub&gt;&#39;" style="whiteSpace=wrap;html=1;fontFamily=Times New Roman;fontSize=11;fillColor=#fff2cc;strokeColor=#d6b656;rounded=1;" vertex="1" parent="1">
          <mxGeometry x="106" y="706" width="22" height="16" as="geometry" />
        </mxCell>
        <mxCell id="ymuWMNrLr9ZNkfSyqNb6-198" value="" style="endArrow=none;dashed=1;html=1;" edge="1" parent="1">
          <mxGeometry width="50" height="50" relative="1" as="geometry">
            <mxPoint x="129" y="714" as="sourcePoint" />
            <mxPoint x="147" y="714" as="targetPoint" />
          </mxGeometry>
        </mxCell>
        <mxCell id="ymuWMNrLr9ZNkfSyqNb6-199" value="W&lt;sub&gt;1&lt;/sub&gt;" style="whiteSpace=wrap;html=1;fontFamily=Times New Roman;fontSize=11;fillColor=#fff2cc;strokeColor=#d6b656;rounded=1;" vertex="1" parent="1">
          <mxGeometry x="195" y="706" width="22" height="16" as="geometry" />
        </mxCell>
        <mxCell id="ymuWMNrLr9ZNkfSyqNb6-200" value="&lt;span style=&quot;font-size: 11px&quot;&gt;B&lt;/span&gt;&lt;sub&gt;M&lt;/sub&gt;&#39;" style="whiteSpace=wrap;html=1;fontFamily=Times New Roman;fontSize=11;fillColor=#ffe6cc;strokeColor=#d79b00;rounded=1;" vertex="1" parent="1">
          <mxGeometry x="236" y="706" width="22" height="16" as="geometry" />
        </mxCell>
        <mxCell id="ymuWMNrLr9ZNkfSyqNb6-201" value="B&lt;sub&gt;1&lt;/sub&gt;&#39;" style="whiteSpace=wrap;html=1;fontFamily=Times New Roman;fontSize=11;fillColor=#ffe6cc;strokeColor=#d79b00;rounded=1;" vertex="1" parent="1">
          <mxGeometry x="195" y="706" width="22" height="16" as="geometry" />
        </mxCell>
        <mxCell id="ymuWMNrLr9ZNkfSyqNb6-202" value="" style="endArrow=none;dashed=1;html=1;" edge="1" parent="1">
          <mxGeometry width="50" height="50" relative="1" as="geometry">
            <mxPoint x="219" y="715" as="sourcePoint" />
            <mxPoint x="237" y="715" as="targetPoint" />
          </mxGeometry>
        </mxCell>
        <mxCell id="ymuWMNrLr9ZNkfSyqNb6-206" value="BERT" style="rounded=1;whiteSpace=wrap;html=1;fontFamily=Times New Roman;fillColor=#d5e8d4;strokeColor=#82b366;fontSize=11;" vertex="1" parent="1">
          <mxGeometry x="280" y="704" width="180" height="60" as="geometry" />
        </mxCell>
        <mxCell id="ymuWMNrLr9ZNkfSyqNb6-207" value="CLS" style="whiteSpace=wrap;html=1;fontFamily=Times New Roman;fontSize=11;fillColor=#dae8fc;strokeColor=#6c8ebf;rounded=1;" vertex="1" parent="1">
          <mxGeometry x="282" y="777" width="22" height="16" as="geometry" />
        </mxCell>
        <mxCell id="ymuWMNrLr9ZNkfSyqNb6-208" value="W&lt;sub&gt;1&lt;/sub&gt;" style="whiteSpace=wrap;html=1;fontFamily=Times New Roman;fontSize=11;fillColor=#fff2cc;strokeColor=#d6b656;rounded=1;" vertex="1" parent="1">
          <mxGeometry x="306" y="777" width="22" height="16" as="geometry" />
        </mxCell>
        <mxCell id="ymuWMNrLr9ZNkfSyqNb6-209" value="" style="endArrow=blockThin;html=1;fontFamily=Times New Roman;fontSize=11;exitX=0.5;exitY=0;exitDx=0;exitDy=0;endFill=1;" edge="1" parent="1">
          <mxGeometry width="50" height="50" relative="1" as="geometry">
            <mxPoint x="381" y="778" as="sourcePoint" />
            <mxPoint x="381" y="764" as="targetPoint" />
          </mxGeometry>
        </mxCell>
        <mxCell id="ymuWMNrLr9ZNkfSyqNb6-211" value="A&lt;sub&gt;N&lt;/sub&gt;" style="whiteSpace=wrap;html=1;fontFamily=Times New Roman;fontSize=11;fillColor=#fff2cc;strokeColor=#d6b656;rounded=1;" vertex="1" parent="1">
          <mxGeometry x="347" y="777" width="22" height="16" as="geometry" />
        </mxCell>
        <mxCell id="ymuWMNrLr9ZNkfSyqNb6-212" value="SEP" style="whiteSpace=wrap;html=1;fontFamily=Times New Roman;fontSize=11;fillColor=#dae8fc;strokeColor=#6c8ebf;rounded=1;" vertex="1" parent="1">
          <mxGeometry x="371" y="777" width="22" height="16" as="geometry" />
        </mxCell>
        <mxCell id="ymuWMNrLr9ZNkfSyqNb6-213" value="A&lt;sub&gt;1&lt;/sub&gt;" style="whiteSpace=wrap;html=1;fontFamily=Times New Roman;fontSize=11;fillColor=#fff2cc;strokeColor=#d6b656;rounded=1;" vertex="1" parent="1">
          <mxGeometry x="306" y="777" width="22" height="16" as="geometry" />
        </mxCell>
        <mxCell id="ymuWMNrLr9ZNkfSyqNb6-214" value="" style="endArrow=none;dashed=1;html=1;" edge="1" parent="1">
          <mxGeometry width="50" height="50" relative="1" as="geometry">
            <mxPoint x="330" y="786" as="sourcePoint" />
            <mxPoint x="348" y="786" as="targetPoint" />
          </mxGeometry>
        </mxCell>
        <mxCell id="ymuWMNrLr9ZNkfSyqNb6-215" value="W&lt;sub&gt;1&lt;/sub&gt;" style="whiteSpace=wrap;html=1;fontFamily=Times New Roman;fontSize=11;fillColor=#fff2cc;strokeColor=#d6b656;rounded=1;" vertex="1" parent="1">
          <mxGeometry x="395" y="777" width="22" height="16" as="geometry" />
        </mxCell>
        <mxCell id="ymuWMNrLr9ZNkfSyqNb6-216" value="&lt;span style=&quot;font-size: 11px&quot;&gt;B&lt;/span&gt;&lt;sub&gt;M&lt;/sub&gt;" style="whiteSpace=wrap;html=1;fontFamily=Times New Roman;fontSize=11;fillColor=#ffe6cc;strokeColor=#d79b00;rounded=1;" vertex="1" parent="1">
          <mxGeometry x="436" y="777" width="22" height="16" as="geometry" />
        </mxCell>
        <mxCell id="ymuWMNrLr9ZNkfSyqNb6-217" value="B&lt;sub&gt;1&lt;/sub&gt;" style="whiteSpace=wrap;html=1;fontFamily=Times New Roman;fontSize=11;fillColor=#ffe6cc;strokeColor=#d79b00;rounded=1;" vertex="1" parent="1">
          <mxGeometry x="395" y="777" width="22" height="16" as="geometry" />
        </mxCell>
        <mxCell id="ymuWMNrLr9ZNkfSyqNb6-218" value="" style="endArrow=none;dashed=1;html=1;" edge="1" parent="1">
          <mxGeometry width="50" height="50" relative="1" as="geometry">
            <mxPoint x="419" y="786" as="sourcePoint" />
            <mxPoint x="437" y="786" as="targetPoint" />
          </mxGeometry>
        </mxCell>
        <mxCell id="ymuWMNrLr9ZNkfSyqNb6-219" value="CLS" style="whiteSpace=wrap;html=1;fontFamily=Times New Roman;fontSize=11;fillColor=#dae8fc;strokeColor=#6c8ebf;rounded=1;" vertex="1" parent="1">
          <mxGeometry x="282" y="706" width="22" height="16" as="geometry" />
        </mxCell>
        <mxCell id="ymuWMNrLr9ZNkfSyqNb6-220" value="W&lt;sub&gt;1&lt;/sub&gt;" style="whiteSpace=wrap;html=1;fontFamily=Times New Roman;fontSize=11;fillColor=#fff2cc;strokeColor=#d6b656;rounded=1;" vertex="1" parent="1">
          <mxGeometry x="306" y="706" width="22" height="16" as="geometry" />
        </mxCell>
        <mxCell id="ymuWMNrLr9ZNkfSyqNb6-221" value="A&lt;sub&gt;N&lt;/sub&gt;&#39;" style="whiteSpace=wrap;html=1;fontFamily=Times New Roman;fontSize=11;fillColor=#fff2cc;strokeColor=#d6b656;rounded=1;" vertex="1" parent="1">
          <mxGeometry x="347" y="706" width="22" height="16" as="geometry" />
        </mxCell>
        <mxCell id="ymuWMNrLr9ZNkfSyqNb6-222" value="SEP" style="whiteSpace=wrap;html=1;fontFamily=Times New Roman;fontSize=11;fillColor=#dae8fc;strokeColor=#6c8ebf;rounded=1;" vertex="1" parent="1">
          <mxGeometry x="371" y="706" width="22" height="16" as="geometry" />
        </mxCell>
        <mxCell id="ymuWMNrLr9ZNkfSyqNb6-223" value="A&lt;sub&gt;1&lt;/sub&gt;&#39;" style="whiteSpace=wrap;html=1;fontFamily=Times New Roman;fontSize=11;fillColor=#fff2cc;strokeColor=#d6b656;rounded=1;" vertex="1" parent="1">
          <mxGeometry x="306" y="706" width="22" height="16" as="geometry" />
        </mxCell>
        <mxCell id="ymuWMNrLr9ZNkfSyqNb6-224" value="" style="endArrow=none;dashed=1;html=1;" edge="1" parent="1">
          <mxGeometry width="50" height="50" relative="1" as="geometry">
            <mxPoint x="330" y="715" as="sourcePoint" />
            <mxPoint x="348" y="715" as="targetPoint" />
          </mxGeometry>
        </mxCell>
        <mxCell id="ymuWMNrLr9ZNkfSyqNb6-225" value="W&lt;sub&gt;1&lt;/sub&gt;" style="whiteSpace=wrap;html=1;fontFamily=Times New Roman;fontSize=11;fillColor=#fff2cc;strokeColor=#d6b656;rounded=1;" vertex="1" parent="1">
          <mxGeometry x="395" y="706" width="22" height="16" as="geometry" />
        </mxCell>
        <mxCell id="ymuWMNrLr9ZNkfSyqNb6-226" value="&lt;span style=&quot;font-size: 11px&quot;&gt;B&lt;/span&gt;&lt;sub&gt;M&lt;/sub&gt;&#39;" style="whiteSpace=wrap;html=1;fontFamily=Times New Roman;fontSize=11;fillColor=#ffe6cc;strokeColor=#d79b00;rounded=1;" vertex="1" parent="1">
          <mxGeometry x="436" y="706" width="22" height="16" as="geometry" />
        </mxCell>
        <mxCell id="ymuWMNrLr9ZNkfSyqNb6-227" value="B&lt;sub&gt;1&lt;/sub&gt;&#39;" style="whiteSpace=wrap;html=1;fontFamily=Times New Roman;fontSize=11;fillColor=#ffe6cc;strokeColor=#d79b00;rounded=1;" vertex="1" parent="1">
          <mxGeometry x="395" y="706" width="22" height="16" as="geometry" />
        </mxCell>
        <mxCell id="ymuWMNrLr9ZNkfSyqNb6-228" value="" style="endArrow=none;dashed=1;html=1;" edge="1" parent="1">
          <mxGeometry width="50" height="50" relative="1" as="geometry">
            <mxPoint x="419" y="714" as="sourcePoint" />
            <mxPoint x="437" y="714" as="targetPoint" />
          </mxGeometry>
        </mxCell>
        <mxCell id="ymuWMNrLr9ZNkfSyqNb6-230" value="Sentence Pair" style="text;html=1;strokeColor=none;fillColor=none;align=center;verticalAlign=middle;whiteSpace=wrap;rounded=0;fontFamily=Times New Roman;fontSize=11;" vertex="1" parent="1">
          <mxGeometry x="302.5" y="796" width="155" height="12" as="geometry" />
        </mxCell>
        <mxCell id="ymuWMNrLr9ZNkfSyqNb6-286" value="" style="shape=flexArrow;endArrow=classic;html=1;width=8;fillColor=#f8cecc;strokeColor=#b85450;rounded=1;" edge="1" parent="1">
          <mxGeometry width="50" height="50" relative="1" as="geometry">
            <mxPoint x="227" y="703" as="sourcePoint" />
            <mxPoint x="227" y="673" as="targetPoint" />
          </mxGeometry>
        </mxCell>
        <mxCell id="ymuWMNrLr9ZNkfSyqNb6-287" value="Masked LM" style="text;html=1;strokeColor=none;fillColor=none;align=center;verticalAlign=middle;whiteSpace=wrap;rounded=0;fontSize=11;" vertex="1" parent="1">
          <mxGeometry x="196" y="661" width="65" height="12" as="geometry" />
        </mxCell>
        <mxCell id="ymuWMNrLr9ZNkfSyqNb6-293" value="" style="endArrow=blockThin;html=1;fontSize=11;exitX=1;exitY=0.5;exitDx=0;exitDy=0;entryX=0;entryY=0.5;entryDx=0;entryDy=0;endFill=1;" edge="1" parent="1" source="ymuWMNrLr9ZNkfSyqNb6-176" target="ymuWMNrLr9ZNkfSyqNb6-206">
          <mxGeometry width="50" height="50" relative="1" as="geometry">
            <mxPoint x="300" y="720" as="sourcePoint" />
            <mxPoint x="350" y="670" as="targetPoint" />
          </mxGeometry>
        </mxCell>
      </root>
    </mxGraphModel>
  </diagram>
</mxfile>
